<svg id="レイヤー_1" data-name="レイヤー 1" xmlns="http://www.w3.org/2000/svg" viewBox="0 0 104.88 118.27"><defs><style>.cls-1{fill:#fff;}.cls-2{fill:#3296dc;}.cls-3{fill:#262626;}.cls-4{fill:#333;}</style></defs><path class="cls-1" d="M36.45,37.44A38.64,38.64,0,0,0,28.1,51.51Z" transform="translate(-12.07 -2.58)"/><path class="cls-2" d="M25.5,56.68a1.07,1.07,0,0,0,.25,0,1.24,1.24,0,0,0,1.21-1,37.89,37.89,0,0,1,1.14-4.21,38.64,38.64,0,0,1,8.35-14.07,36.5,36.5,0,0,1,3.17-3A1.24,1.24,0,1,0,38,32.51,41,41,0,0,0,24.54,55.22,1.23,1.23,0,0,0,25.5,56.68Z" transform="translate(-12.07 -2.58)"/><path class="cls-2" d="M52.7,100.06a38.14,38.14,0,0,1-11.94-6.38,1.23,1.23,0,0,0-1.74.2,1.25,1.25,0,0,0,.2,1.74,40.63,40.63,0,0,0,12.71,6.79,1.32,1.32,0,0,0,.39.06,1.24,1.24,0,0,0,.38-2.41Z" transform="translate(-12.07 -2.58)"/><path class="cls-2" d="M88.25,93.68a38,38,0,0,1-12.76,6.64,1.24,1.24,0,0,0,.36,2.42,1.48,1.48,0,0,0,.35,0,40.67,40.67,0,0,0,13.59-7.07,1.24,1.24,0,0,0-1.54-1.94Z" transform="translate(-12.07 -2.58)"/><path class="cls-1" d="M100.93,51.56A38.59,38.59,0,0,0,92.15,37Z" transform="translate(-12.07 -2.58)"/><path class="cls-2" d="M92.15,37A38.38,38.38,0,0,1,102,55.67a1.24,1.24,0,0,0,1.21,1,1.18,1.18,0,0,0,.26,0,1.24,1.24,0,0,0,.95-1.47,41,41,0,0,0-13.85-23A1.24,1.24,0,1,0,89,34.08,37.53,37.53,0,0,1,92.15,37Z" transform="translate(-12.07 -2.58)"/><path class="cls-2" d="M13.88,64a1.13,1.13,0,0,0,.12.21,1,1,0,0,0,.34.34,2.25,2.25,0,0,0,.21.12l.23.07.25,0a1.24,1.24,0,0,0,.87-.36.9.9,0,0,0,.15-.19,1.13,1.13,0,0,0,.12-.21,2,2,0,0,0,.07-.23,2.12,2.12,0,0,0,0-.24,1.25,1.25,0,0,0-.36-.88,1.28,1.28,0,0,0-1.75,0,1.25,1.25,0,0,0-.36.88,2.12,2.12,0,0,0,0,.24A2,2,0,0,0,13.88,64Z" transform="translate(-12.07 -2.58)"/><path class="cls-2" d="M15.53,56.37l.21,0a1.24,1.24,0,0,0,1.22-1h0a1.23,1.23,0,1,0-1.42,1Z" transform="translate(-12.07 -2.58)"/><path class="cls-2" d="M32,27.49a1.23,1.23,0,1,0-.93-.42A1.23,1.23,0,0,0,32,27.49Z" transform="translate(-12.07 -2.58)"/><path class="cls-2" d="M20.76,40.38a1.26,1.26,0,0,0,.61.16,1.25,1.25,0,0,0,1.08-.63,1.24,1.24,0,0,0-2.16-1.22A1.25,1.25,0,0,0,20.76,40.38Z" transform="translate(-12.07 -2.58)"/><path class="cls-2" d="M17.46,48.15a1.2,1.2,0,0,0,.42.07A1.24,1.24,0,0,0,19,47.39a1.24,1.24,0,1,0-1.58.76Z" transform="translate(-12.07 -2.58)"/><path class="cls-2" d="M25.35,33.28a1.23,1.23,0,1,0-.18-1.73A1.23,1.23,0,0,0,25.35,33.28Z" transform="translate(-12.07 -2.58)"/><path class="cls-2" d="M37.67,21.74a1.43,1.43,0,0,0,.12.21,1,1,0,0,0,.15.19,1.22,1.22,0,0,0,1.75,0,.7.7,0,0,0,.15-.19.88.88,0,0,0,.12-.21,2,2,0,0,0,.07-.23,1.94,1.94,0,0,0,0-.24A1.79,1.79,0,0,0,40,21a2.17,2.17,0,0,0-.07-.24,1.13,1.13,0,0,0-.12-.21.9.9,0,0,0-.15-.19,1.28,1.28,0,0,0-1.75,0,1.25,1.25,0,0,0-.36.88,1.94,1.94,0,0,0,0,.24A2,2,0,0,0,37.67,21.74Z" transform="translate(-12.07 -2.58)"/><path class="cls-2" d="M51.27,110.49a1.23,1.23,0,1,0-.58,2.4,1,1,0,0,0,.29,0,1.24,1.24,0,0,0,.29-2.44Z" transform="translate(-12.07 -2.58)"/><path class="cls-2" d="M37.91,105.06a1.24,1.24,0,1,0-1.26,2.13,1.21,1.21,0,0,0,.63.18,1.24,1.24,0,0,0,.63-2.31Z" transform="translate(-12.07 -2.58)"/><path class="cls-2" d="M44.38,108.28a1.24,1.24,0,1,0-.93,2.29,1.14,1.14,0,0,0,.47.1,1.24,1.24,0,0,0,.46-2.39Z" transform="translate(-12.07 -2.58)"/><path class="cls-2" d="M79.32,110.08a1.24,1.24,0,0,0,.66,2.39,1.24,1.24,0,1,0-.66-2.39Z" transform="translate(-12.07 -2.58)"/><path class="cls-2" d="M92.49,104.21a1.24,1.24,0,0,0,.67,2.28,1.16,1.16,0,0,0,.66-.2,1.23,1.23,0,1,0-1.33-2.08Z" transform="translate(-12.07 -2.58)"/><path class="cls-2" d="M86.12,107.64a1.24,1.24,0,1,0,1.64.63A1.24,1.24,0,0,0,86.12,107.64Z" transform="translate(-12.07 -2.58)"/><path class="cls-2" d="M90.88,22.93a1.25,1.25,0,0,0,.88-.36,1.39,1.39,0,0,0,.15-.19,1.55,1.55,0,0,0,.12-.22,1.42,1.42,0,0,0,.07-.22,2.29,2.29,0,0,0,0-.25,1.94,1.94,0,0,0,0-.24,1.55,1.55,0,0,0-.07-.23,1.05,1.05,0,0,0-.12-.21,1,1,0,0,0-.15-.19,1.28,1.28,0,0,0-1.75,0,.7.7,0,0,0-.15.19.72.72,0,0,0-.12.21,1.55,1.55,0,0,0-.07.23,1,1,0,0,0,0,.24,1.23,1.23,0,0,0,1.23,1.24Z" transform="translate(-12.07 -2.58)"/><path class="cls-2" d="M97.52,27.94a1.26,1.26,0,0,0,.92-.41,1.24,1.24,0,1,0-.92.41Z" transform="translate(-12.07 -2.58)"/><path class="cls-2" d="M112.08,55.49a1.22,1.22,0,0,0,1.21,1h.21a1.24,1.24,0,1,0-1.42-1Z" transform="translate(-12.07 -2.58)"/><path class="cls-2" d="M107.84,40.89a1.23,1.23,0,0,0,.6-.16,1.23,1.23,0,1,0-.6.16Z" transform="translate(-12.07 -2.58)"/><path class="cls-2" d="M111.23,48.47a1.22,1.22,0,0,0,.41-.07,1.24,1.24,0,0,0-.82-2.34,1.24,1.24,0,0,0,.41,2.41Z" transform="translate(-12.07 -2.58)"/><path class="cls-2" d="M103.22,34a1.25,1.25,0,0,0,.77-.27,1.23,1.23,0,0,0,.2-1.73h0a1.24,1.24,0,0,0-1.94,1.55A1.25,1.25,0,0,0,103.22,34Z" transform="translate(-12.07 -2.58)"/><path class="cls-2" d="M113.75,62.35l-.24.07-.21.12a1.19,1.19,0,0,0-.55,1,1.05,1.05,0,0,0,0,.24,1,1,0,0,0,.06.23,1.13,1.13,0,0,0,.12.21,1.39,1.39,0,0,0,.15.19,1.25,1.25,0,0,0,.88.36l.24,0,.23-.07a1.55,1.55,0,0,0,.22-.12l.18-.15a1.46,1.46,0,0,0,.16-.19,2.12,2.12,0,0,0,.11-.21,1,1,0,0,0,.07-.23,2.12,2.12,0,0,0,0-.24,1.25,1.25,0,0,0-.36-.88A1.23,1.23,0,0,0,113.75,62.35Z" transform="translate(-12.07 -2.58)"/><path class="cls-1" d="M104,69.41a3.84,3.84,0,1,0-3.83-3.83A3.84,3.84,0,0,0,104,69.41Z" transform="translate(-12.07 -2.58)"/><path class="cls-1" d="M115.37,86.89l-4.7-13.22a4.15,4.15,0,0,0-1.23-1.87,3.26,3.26,0,0,0-2.09-.9h-6.81a4.07,4.07,0,0,0-3.52,3L92.65,87.21a1.55,1.55,0,0,0,.09,1.23,1.6,1.6,0,0,0,.94.81,1.51,1.51,0,0,0,.51.08,1.61,1.61,0,0,0,1.54-1.11l2-6a.74.74,0,0,1,.7-.51h.12a.73.73,0,0,1,.63.73V89c0,.18,0,.36,0,.58a.88.88,0,0,1,0,.23,1.17,1.17,0,0,0,0,.26L97.9,113.55a1.76,1.76,0,0,0,1.66,1.85h.1a1.75,1.75,0,0,0,1.75-1.66l1-19.31a.73.73,0,0,1,.27-.53.71.71,0,0,1,.58-.16,4.29,4.29,0,0,0,1.43,0,.73.73,0,0,1,.57.15.77.77,0,0,1,.28.53L107,113.47a1.77,1.77,0,0,0,1.89,1.62,1.74,1.74,0,0,0,1.62-1.88L108.73,89.7a.33.33,0,0,1,0-.14,4.27,4.27,0,0,0,0-.59V82.31a.74.74,0,0,1,1.44-.25l2.1,5.92a1.62,1.62,0,0,0,.84.92,1.59,1.59,0,0,0,1.23.06,1.57,1.57,0,0,0,.92-.83A1.62,1.62,0,0,0,115.37,86.89Z" transform="translate(-12.07 -2.58)"/><path class="cls-3" d="M116.77,86.4l-4.7-13.21a5.51,5.51,0,0,0-1.67-2.51,4.72,4.72,0,0,0-2.78-1.25,5.32,5.32,0,1,0-7.31,0,5.54,5.54,0,0,0-4.71,4L91.24,86.75a3,3,0,0,0,.18,2.36,3.07,3.07,0,0,0,1.8,1.55,2.9,2.9,0,0,0,1,.16,3.1,3.1,0,0,0,3-2.14l.51-1.57V89a4.88,4.88,0,0,0,0,.64,2.21,2.21,0,0,0,0,.35l-1.24,23.52a3.25,3.25,0,0,0,3.07,3.4h.18a3.24,3.24,0,0,0,3.23-3.07l1-18.55a1,1,0,0,0,.25,0l1.36,18.31a3.26,3.26,0,0,0,3.24,3H109a3.24,3.24,0,0,0,3-3.47l-1.74-23.44a5.64,5.64,0,0,0,0-.69V86.62l.67,1.86a3.1,3.1,0,0,0,4,1.88,3.09,3.09,0,0,0,1.89-4ZM114.38,89a1.59,1.59,0,0,1-1.23-.06,1.62,1.62,0,0,1-.84-.92l-2.1-5.92a.74.74,0,0,0-1.44.25V89a4.27,4.27,0,0,1,0,.59.33.33,0,0,0,0,.14l1.74,23.51a1.74,1.74,0,0,1-1.62,1.88,1.77,1.77,0,0,1-1.89-1.62l-1.41-19.06a.77.77,0,0,0-.28-.53.73.73,0,0,0-.57-.15,4.29,4.29,0,0,1-1.43,0,.71.71,0,0,0-.58.16.73.73,0,0,0-.27.53l-1,19.31a1.75,1.75,0,0,1-1.75,1.66h-.1a1.76,1.76,0,0,1-1.66-1.85L99.13,90a1.17,1.17,0,0,1,0-.26.88.88,0,0,0,0-.23c0-.22,0-.4,0-.58v-6.5a.73.73,0,0,0-.63-.73h-.12a.74.74,0,0,0-.7.51l-2,6a1.61,1.61,0,0,1-1.54,1.11,1.51,1.51,0,0,1-.51-.08,1.6,1.6,0,0,1-.94-.81,1.55,1.55,0,0,1-.09-1.23L97,73.89a4.07,4.07,0,0,1,3.52-3h6.81a3.26,3.26,0,0,1,2.09.9,4.15,4.15,0,0,1,1.23,1.87l4.7,13.22a1.62,1.62,0,0,1-.07,1.24A1.57,1.57,0,0,1,114.38,89ZM104,61.74a3.84,3.84,0,1,1-3.83,3.84A3.84,3.84,0,0,1,104,61.74Z" transform="translate(-12.07 -2.58)"/><path class="cls-1" d="M64.45,73.37a3.84,3.84,0,1,0-3.84-3.83A3.84,3.84,0,0,0,64.45,73.37Z" transform="translate(-12.07 -2.58)"/><path class="cls-1" d="M75.8,92.09a1.62,1.62,0,0,0,.06-1.24h0l-4.7-13.22a4.07,4.07,0,0,0-1.23-1.87,3.24,3.24,0,0,0-2.09-.9H61a4.07,4.07,0,0,0-3.52,3L53.14,91.17a1.61,1.61,0,0,0,1,2,1.51,1.51,0,0,0,.51.08,1.62,1.62,0,0,0,1.54-1.11l2-6a.74.74,0,0,1,.71-.51H59a.75.75,0,0,1,.63.74v6.5a4.14,4.14,0,0,0,0,.58.89.89,0,0,1,0,.23,2.34,2.34,0,0,0,0,.26l-1.23,23.51a1.76,1.76,0,0,0,1.66,1.85h.1a1.75,1.75,0,0,0,1.75-1.66l1-19.31a.69.69,0,0,1,.27-.53.74.74,0,0,1,.57-.17,4.29,4.29,0,0,0,1.43,0,.74.74,0,0,1,.85.67l1.42,19.07a1.76,1.76,0,0,0,3.51-.26L69.22,93.66v-.14a4.27,4.27,0,0,0,0-.59V86.27A.74.74,0,0,1,70.7,86l2.11,5.92a1.62,1.62,0,0,0,3,.15Z" transform="translate(-12.07 -2.58)"/><path class="cls-3" d="M77.14,92.73a3.12,3.12,0,0,0,.12-2.38h0l-4.7-13.2a5.52,5.52,0,0,0-1.66-2.52,4.82,4.82,0,0,0-2.79-1.24,5.32,5.32,0,1,0-7.31,0,5.57,5.57,0,0,0-4.71,4L51.73,90.7a3.11,3.11,0,0,0,2,3.92,3.18,3.18,0,0,0,1,.16,3.1,3.1,0,0,0,3-2.14l.52-1.57v1.86c0,.2,0,.41,0,.64s0,.24,0,.35l-1.23,23.51A3.24,3.24,0,0,0,60,120.84h.18a3.26,3.26,0,0,0,3.24-3.08l1-18.54h.26L66,117.54a3.25,3.25,0,0,0,3.23,3h.24a3.25,3.25,0,0,0,3-3.47L70.71,93.62c0-.25,0-.47,0-.69V90.57l.66,1.86a3.11,3.11,0,0,0,5.73.3Zm-3.5.13a1.63,1.63,0,0,1-.83-.92L70.7,86a.74.74,0,0,0-1.44.25v6.66a4.27,4.27,0,0,1,0,.59v.14L71,117.17a1.76,1.76,0,0,1-3.51.26L66,98.36a.74.74,0,0,0-.85-.67,4.29,4.29,0,0,1-1.43,0,.74.74,0,0,0-.57.17.69.69,0,0,0-.27.53l-1,19.31a1.75,1.75,0,0,1-1.75,1.66h-.1a1.76,1.76,0,0,1-1.66-1.85L59.62,94a2.34,2.34,0,0,1,0-.26.89.89,0,0,0,0-.23,4.14,4.14,0,0,1,0-.58v-6.5a.75.75,0,0,0-.63-.74h-.11a.74.74,0,0,0-.71.51l-2,6a1.62,1.62,0,0,1-1.54,1.11,1.51,1.51,0,0,1-.51-.08,1.61,1.61,0,0,1-1-2l4.37-13.32a4.07,4.07,0,0,1,3.52-3h6.81a3.24,3.24,0,0,1,2.09.9,4.07,4.07,0,0,1,1.23,1.87l4.7,13.22h0a1.62,1.62,0,0,1-2.22,2ZM64.45,65.7a3.84,3.84,0,1,1-3.84,3.84A3.84,3.84,0,0,1,64.45,65.7Z" transform="translate(-12.07 -2.58)"/><path class="cls-1" d="M24.94,69.41a3.84,3.84,0,1,0-3.84-3.83A3.85,3.85,0,0,0,24.94,69.41Z" transform="translate(-12.07 -2.58)"/><path class="cls-1" d="M36.35,86.89l-4.7-13.22a4.07,4.07,0,0,0-1.23-1.87,3.24,3.24,0,0,0-2.08-.9H21.52a4.09,4.09,0,0,0-3.52,3L13.63,87.21a1.59,1.59,0,0,0,.1,1.23,1.57,1.57,0,0,0,.94.81,1.42,1.42,0,0,0,.5.08,1.61,1.61,0,0,0,1.54-1.11l2-6a.75.75,0,0,1,.71-.51h.12a.73.73,0,0,1,.62.73V89a4,4,0,0,0,0,.58.59.59,0,0,1,0,.23,1.15,1.15,0,0,0,0,.26l-1.24,23.51a1.76,1.76,0,0,0,1.67,1.85h.09a1.76,1.76,0,0,0,1.76-1.66l1-19.31a.73.73,0,0,1,.27-.53.7.7,0,0,1,.57-.16,4.29,4.29,0,0,0,1.43,0,.76.76,0,0,1,.58.15.73.73,0,0,1,.27.53L28,113.47a1.76,1.76,0,0,0,3.51-.26L29.71,89.7a.71.71,0,0,1,0-.14c0-.22,0-.41,0-.59V82.31a.74.74,0,0,1,1.44-.25L33.3,88a1.63,1.63,0,0,0,.83.92,1.62,1.62,0,0,0,1.24.06,1.6,1.6,0,0,0,.92-.83A1.57,1.57,0,0,0,36.35,86.89Z" transform="translate(-12.07 -2.58)"/><path class="cls-3" d="M37.63,88.77a3,3,0,0,0,.12-2.37L33.06,73.19a5.59,5.59,0,0,0-1.67-2.51,4.74,4.74,0,0,0-2.79-1.25,5.32,5.32,0,1,0-7.3,0,5.57,5.57,0,0,0-4.72,4L12.22,86.75a3.08,3.08,0,0,0,.18,2.36,3.13,3.13,0,0,0,1.8,1.55,3,3,0,0,0,1,.16,3.09,3.09,0,0,0,3-2.14l.52-1.57V89c0,.2,0,.41,0,.64s0,.24,0,.35L17.4,113.48a3.24,3.24,0,0,0,3.07,3.4h.17a3.24,3.24,0,0,0,3.24-3.07l1-18.55a1.13,1.13,0,0,0,.26,0l1.36,18.31a3.25,3.25,0,0,0,3.23,3h.24a3.25,3.25,0,0,0,3-3.47L31.2,89.67a5.92,5.92,0,0,0,0-.7V86.62l.66,1.86a3.11,3.11,0,0,0,5.73.29ZM35.37,89a1.62,1.62,0,0,1-1.24-.06A1.63,1.63,0,0,1,33.3,88l-2.1-5.92a.74.74,0,0,0-1.44.25V89c0,.18,0,.37,0,.59a.71.71,0,0,0,0,.14l1.75,23.51a1.76,1.76,0,0,1-3.51.26L26.53,94.41a.73.73,0,0,0-.27-.53.76.76,0,0,0-.58-.15,4.29,4.29,0,0,1-1.43,0,.7.7,0,0,0-.57.16.73.73,0,0,0-.27.53l-1,19.31a1.76,1.76,0,0,1-1.76,1.66h-.09a1.76,1.76,0,0,1-1.67-1.85L20.12,90a1.15,1.15,0,0,1,0-.26.59.59,0,0,0,0-.23,4,4,0,0,1,0-.58v-6.5a.73.73,0,0,0-.62-.73h-.12a.75.75,0,0,0-.71.51l-2,6a1.61,1.61,0,0,1-1.54,1.11,1.42,1.42,0,0,1-.5-.08,1.57,1.57,0,0,1-.94-.81,1.59,1.59,0,0,1-.1-1.23L18,73.89a4.09,4.09,0,0,1,3.52-3h6.82a3.24,3.24,0,0,1,2.08.9,4.07,4.07,0,0,1,1.23,1.87l4.7,13.22a1.57,1.57,0,0,1-.06,1.24A1.6,1.6,0,0,1,35.37,89ZM24.94,61.74a3.84,3.84,0,1,1-3.84,3.84A3.85,3.85,0,0,1,24.94,61.74Z" transform="translate(-12.07 -2.58)"/><path class="cls-1" d="M49.81,46.49h29.4a4,4,0,0,0,3.94-4V8a4,4,0,0,0-3.94-4H49.81a4,4,0,0,0-4,4V42.54A4,4,0,0,0,49.81,46.49Zm29.47-7.21H72.41a.74.74,0,0,1-.74-.74.75.75,0,0,1,.74-.75h6.87a.75.75,0,0,1,.74.75A.74.74,0,0,1,79.28,39.28ZM69.05,12.67H79.28a.75.75,0,0,1,.74.75.74.74,0,0,1-.74.74H69.05a.74.74,0,0,1-.74-.74A.75.75,0,0,1,69.05,12.67Zm-8.71,0h4a.75.75,0,0,1,.74.75.74.74,0,0,1-.74.74h-4a.74.74,0,0,1-.74-.74A.75.75,0,0,1,60.34,12.67Zm0,2.94H79.28a.74.74,0,0,1,.74.74.75.75,0,0,1-.74.75H60.34a.75.75,0,0,1-.74-.75A.74.74,0,0,1,60.34,15.61Zm0,8.16H79.28a.74.74,0,1,1,0,1.48H60.34a.74.74,0,0,1,0-1.48ZM80,27.45a.74.74,0,0,1-.74.74H74.84a.75.75,0,1,1,0-1.49h4.44A.75.75,0,0,1,80,27.45ZM60.34,26.7h9.9a.75.75,0,0,1,0,1.49h-9.9a.75.75,0,0,1,0-1.49Zm0,8.16H79.28a.74.74,0,1,1,0,1.48H60.34a.74.74,0,1,1,0-1.48Zm0,2.93h6.54a.75.75,0,0,1,.74.75.74.74,0,0,1-.74.74H60.34a.74.74,0,0,1-.74-.74A.75.75,0,0,1,60.34,37.79ZM49.26,11.92a.74.74,0,0,1,.74-.74h5.92a.74.74,0,0,1,.74.74v5.93a.74.74,0,0,1-.74.74H50a.74.74,0,0,1-.74-.74Zm0,11.09a.74.74,0,0,1,.74-.74h5.92a.74.74,0,0,1,.74.74v5.93a.74.74,0,0,1-.74.74H50a.74.74,0,0,1-.74-.74Zm0,11.1a.75.75,0,0,1,.74-.75h5.92a.75.75,0,0,1,.74.75V40a.74.74,0,0,1-.74.74H50a.74.74,0,0,1-.74-.74Z" transform="translate(-12.07 -2.58)"/><path class="cls-4" d="M49.81,48h29.4a5.44,5.44,0,0,0,5.43-5.44V8a5.44,5.44,0,0,0-5.43-5.44H49.81A5.44,5.44,0,0,0,44.38,8V42.54A5.44,5.44,0,0,0,49.81,48Zm-4-40a4,4,0,0,1,4-4h29.4a4,4,0,0,1,3.94,4V42.54a4,4,0,0,1-3.94,4H49.81a4,4,0,0,1-4-4Z" transform="translate(-12.07 -2.58)"/><rect class="cls-1" x="38.68" y="10.08" width="4.43" height="4.44"/><path class="cls-4" d="M50,18.59h5.92a.74.74,0,0,0,.74-.74V11.92a.74.74,0,0,0-.74-.74H50a.74.74,0,0,0-.74.74v5.93A.74.74,0,0,0,50,18.59Zm.75-5.93h4.42v4.45H50.75Z" transform="translate(-12.07 -2.58)"/><rect class="cls-1" x="38.68" y="21.18" width="4.43" height="4.44"/><path class="cls-2" d="M50,29.68h5.92a.74.74,0,0,0,.74-.74V23a.74.74,0,0,0-.74-.74H50a.74.74,0,0,0-.74.74v5.93A.74.74,0,0,0,50,29.68Zm.75-5.92h4.42V28.2H50.75Z" transform="translate(-12.07 -2.58)"/><rect class="cls-1" x="38.68" y="32.27" width="4.43" height="4.44"/><path class="cls-4" d="M50,40.77h5.92a.74.74,0,0,0,.74-.74V34.11a.75.75,0,0,0-.74-.75H50a.75.75,0,0,0-.74.75V40A.74.74,0,0,0,50,40.77Zm.75-5.92h4.42v4.44H50.75Z" transform="translate(-12.07 -2.58)"/><path class="cls-4" d="M69.05,14.16H79.28a.74.74,0,0,0,.74-.74.75.75,0,0,0-.74-.75H69.05a.75.75,0,0,0-.74.75A.74.74,0,0,0,69.05,14.16Z" transform="translate(-12.07 -2.58)"/><path class="cls-4" d="M60.34,14.16h4a.74.74,0,0,0,.74-.74.75.75,0,0,0-.74-.75h-4a.75.75,0,0,0-.74.75A.74.74,0,0,0,60.34,14.16Z" transform="translate(-12.07 -2.58)"/><path class="cls-4" d="M60.34,17.1H79.28a.75.75,0,0,0,.74-.75.74.74,0,0,0-.74-.74H60.34a.74.74,0,0,0-.74.74A.75.75,0,0,0,60.34,17.1Z" transform="translate(-12.07 -2.58)"/><path class="cls-2" d="M60.34,25.25H79.28a.74.74,0,1,0,0-1.48H60.34a.74.74,0,0,0,0,1.48Z" transform="translate(-12.07 -2.58)"/><path class="cls-2" d="M79.28,26.7H74.84a.75.75,0,1,0,0,1.49h4.44a.75.75,0,0,0,0-1.49Z" transform="translate(-12.07 -2.58)"/><path class="cls-2" d="M60.34,28.19h9.9a.75.75,0,0,0,0-1.49h-9.9a.75.75,0,0,0,0,1.49Z" transform="translate(-12.07 -2.58)"/><path class="cls-4" d="M60.34,36.34H79.28a.74.74,0,1,0,0-1.48H60.34a.74.74,0,1,0,0,1.48Z" transform="translate(-12.07 -2.58)"/><path class="cls-4" d="M79.28,37.79H72.41a.75.75,0,0,0-.74.75.74.74,0,0,0,.74.74h6.87a.74.74,0,0,0,.74-.74A.75.75,0,0,0,79.28,37.79Z" transform="translate(-12.07 -2.58)"/><path class="cls-4" d="M60.34,39.28h6.54a.74.74,0,0,0,.74-.74.75.75,0,0,0-.74-.75H60.34a.75.75,0,0,0-.74.75A.74.74,0,0,0,60.34,39.28Z" transform="translate(-12.07 -2.58)"/><circle class="cls-2" cx="34.62" cy="64.99" r="1.24"/><circle class="cls-2" cx="28.35" cy="73.57" r="1.24"/><circle class="cls-2" cx="34.62" cy="72.42" r="1.24"/><circle class="cls-2" cx="34.62" cy="57.57" r="1.24"/><circle class="cls-2" cx="34.62" cy="50.15" r="1.24"/><circle class="cls-2" cx="70.53" cy="50.15" r="1.24"/><circle class="cls-2" cx="70.53" cy="64.99" r="1.24"/><circle class="cls-2" cx="76.79" cy="73.57" r="1.24"/><circle class="cls-2" cx="70.53" cy="72.42" r="1.24"/><circle class="cls-2" cx="70.53" cy="57.57" r="1.24"/></svg>